<?xml version="1.0" encoding="utf-8"?>
<!-- Generator: Adobe Illustrator 26.3.1, SVG Export Plug-In . SVG Version: 6.00 Build 0)  -->
<svg version="1.1" xmlns="http://www.w3.org/2000/svg" xmlns:xlink="http://www.w3.org/1999/xlink" x="0px" y="0px"
	 viewBox="0 0 370.7 114.4" style="enable-background:new 0 0 370.7 114.4;" xml:space="preserve">
<style type="text/css">
	.st0{display:none;}
	.st1{display:inline;}
	.st2{fill:#D78825;}
	.st3{fill:#6D6E71;}
	.st4{fill:#E8941A;}
	.st5{display:inline;fill:#6D6E71;}
	.st6{font-family:'FuturaStd-Book';}
	.st7{font-size:102px;}
	.st8{letter-spacing:-5;}
	.st9{display:inline;fill:#E8941A;}
	.st10{font-family:'FuturaStd-Bold';}
	.st11{letter-spacing:-4;}
</style>
<g id="R2022b_Match" class="st0">
	<g id="Layer_1_00000160151629525461105080000003402065091281401251_" class="st1">
		<g id="Layer_1_00000088124287597977995180000012106550101801836987_" class="st0">
			<g class="st1">
				<path class="st2" d="M70.4,84.5H45.5L26.7,55h-0.2v29.5h-20V7.7h29.9c15.2,0,26.7,7.2,26.7,23.6c0,10.6-5.9,19.8-16.8,21.7
					L70.4,84.5z M26.5,42.2h1.9c6.5,0,13.9-1.2,13.9-9.6S35,23,28.4,23h-1.9V42.2z"/>
				<path class="st3" d="M121.2,76.6v7.9H71.4l36-42.5c3.1-3.7,5.2-7.8,5.2-12.8c0-8.6-6.9-14.9-15.3-14.9
					c-9.3,0-15.3,6.8-15.5,15.8h-8.6C73.6,16.7,83.4,6.4,97,6.4c12.8,0,24.1,9.4,24.1,22.7c0,6.2-1.8,11.6-5.8,16.2L88.7,76.6H121.2
					z"/>
				<path class="st3" d="M182.8,46.2c0,19-10,39.6-27.5,39.6s-27.5-20.7-27.5-39.6c0-15.8,8-39.8,27.5-39.8S182.8,30.4,182.8,46.2z
					 M136.3,46.6c0.2,10.8,4.8,31.3,19,31.3s18.7-20.5,19-31.3c0.2-10.9-4.5-32.3-19-32.3S136.1,35.7,136.3,46.6z"/>
				<path class="st3" d="M234.5,76.6v7.9h-49.7l36-42.5c3.1-3.7,5.2-7.8,5.2-12.8c0-8.6-6.9-14.9-15.3-14.9
					c-9.3,0-15.3,6.8-15.5,15.8h-8.6c0.3-13.5,10.2-23.7,23.7-23.7c12.8,0,24.2,9.4,24.2,22.7c0,6.2-1.8,11.6-5.8,16.2l-26.6,31.3
					C202.1,76.6,234.5,76.6,234.5,76.6z"/>
				<path class="st3" d="M249.2,15.7l4.5-7.9h16.8v76.8H262V15.7H249.2z"/>
				<path class="st2" d="M291.2,0h18.5v37.4c4-4.6,10.2-6.8,16.2-6.8c15.5,0,26.2,12.8,26.2,27.8c0,15.1-10.8,27.9-26.4,27.9
					c-6.1,0-12.4-2.3-15.8-7.5h-0.2v5.8h-18.5L291.2,0L291.2,0z M309.2,58.5c0,6.6,4.4,11.7,11.9,11.7S333,65.1,333,58.5
					c0-6.4-4.4-11.8-11.9-11.8C313.5,46.6,309.2,52,309.2,58.5z"/>
			</g>
		</g>
		<g id="R2006b">
			<g>
				<path class="st4" d="M70.4,84.6H45.5L26.7,55h-0.2v29.6h-20V7.7h29.9c15.1,0,26.7,7.3,26.7,23.7c0,10.6-5.9,19.8-16.8,21.7
					L70.4,84.6z M26.5,42.2h1.9c6.5,0,13.9-1.2,13.9-9.6S35,23,28.4,23h-1.9V42.2z"/>
				<path class="st3" d="M121.1,76.6v7.9H71.4l36-42.5c3.1-3.7,5.2-7.8,5.2-12.8c0-8.6-6.9-14.9-15.3-14.9
					c-9.3,0-15.3,6.8-15.5,15.8h-8.6C73.5,16.7,83.4,6.4,97,6.4c12.8,0,24.1,9.4,24.1,22.7c0,6.2-1.8,11.6-5.8,16.2L88.7,76.6H121.1
					z"/>
				<path class="st3" d="M182.8,46.2c0,19-10,39.6-27.5,39.6s-27.5-20.7-27.5-39.6c0-15.8,8-39.8,27.5-39.8S182.8,30.4,182.8,46.2z
					 M136.3,46.6c0.2,10.8,4.8,31.3,19,31.3s18.7-20.5,19-31.3c0.2-10.9-4.5-32.3-19-32.3S136.1,35.7,136.3,46.6z"/>
				<path class="st3" d="M234.4,76.6v7.9h-49.7l36-42.5c3.1-3.7,5.2-7.8,5.2-12.8c0-8.6-6.9-14.9-15.3-14.9
					c-9.3,0-15.3,6.8-15.5,15.8h-8.6c0.4-13.4,10.2-23.7,23.8-23.7c12.8,0,24.2,9.4,24.2,22.7c0,6.2-1.8,11.6-5.8,16.2l-26.6,31.3
					C202.1,76.6,234.4,76.6,234.4,76.6z"/>
				<path class="st3" d="M294.7,76.6v7.9H245L281,42c3.1-3.7,5.2-7.8,5.2-12.8c0-8.6-6.9-14.9-15.3-14.9c-9.3,0-15.3,6.8-15.5,15.8
					h-8.6c0.3-13.4,10.2-23.7,23.7-23.7c12.8,0,24.2,9.4,24.2,22.7c0,6.2-1.8,11.6-5.8,16.2l-26.6,31.3
					C262.3,76.6,294.7,76.6,294.7,76.6z"/>
			</g>
		</g>
	</g>
	<g id="Layer_2_00000064328270880594630820000011919363147692747703_" class="st1">
		<path class="st4" d="M304.1,0h18.5v37.4c4-4.6,10.2-6.8,16.2-6.8c15.5,0,26.2,12.8,26.2,27.8c0,15.1-10.8,27.9-26.4,27.9
			c-6.1,0-12.4-2.3-15.8-7.5h-0.2v5.8h-18.5L304.1,0L304.1,0z M322.1,58.5c0,6.6,4.4,11.7,11.9,11.7s11.9-5.1,11.9-11.7
			c0-6.4-4.4-11.8-11.9-11.8C326.4,46.6,322.1,52,322.1,58.5z"/>
	</g>
</g>
<g id="R2022a_Match" class="st0">
	<g id="Layer_2_00000145759872656804795780000015881633501728612015_" class="st1">
		<g id="R2006b_00000090276076408074191940000006117025852032832921_">
			<g>
				<path class="st4" d="M70.4,84.6H45.5L26.7,55h-0.2v29.6h-20V7.7h29.9c15.1,0,26.7,7.3,26.7,23.7c0,10.6-5.9,19.8-16.8,21.7
					L70.4,84.6z M26.5,42.2h1.9c6.5,0,13.9-1.2,13.9-9.6S35,23,28.4,23h-1.9V42.2z"/>
				<path class="st3" d="M121.1,76.6v7.9H71.4l36-42.5c3.1-3.7,5.2-7.8,5.2-12.8c0-8.6-6.9-14.9-15.3-14.9
					c-9.3,0-15.3,6.8-15.5,15.8h-8.6C73.5,16.7,83.4,6.4,97,6.4c12.8,0,24.1,9.4,24.1,22.7c0,6.2-1.8,11.6-5.8,16.2L88.7,76.6H121.1
					z"/>
				<path class="st3" d="M182.8,46.2c0,19-10,39.6-27.5,39.6s-27.5-20.7-27.5-39.6c0-15.8,8-39.8,27.5-39.8S182.8,30.4,182.8,46.2z
					 M136.3,46.6c0.2,10.8,4.8,31.3,19,31.3s18.7-20.5,19-31.3c0.2-10.9-4.5-32.3-19-32.3S136.1,35.7,136.3,46.6z"/>
				<path class="st3" d="M234.4,76.6v7.9h-49.7l36-42.5c3.1-3.7,5.2-7.8,5.2-12.8c0-8.6-6.9-14.9-15.3-14.9
					c-9.3,0-15.3,6.8-15.5,15.8h-8.6c0.4-13.4,10.2-23.7,23.8-23.7c12.8,0,24.2,9.4,24.2,22.7c0,6.2-1.8,11.6-5.8,16.2l-26.6,31.3
					C202.1,76.6,234.4,76.6,234.4,76.6z"/>
				<path class="st3" d="M294.7,76.6v7.9H245L281,42c3.1-3.7,5.2-7.8,5.2-12.8c0-8.6-6.9-14.9-15.3-14.9c-9.3,0-15.3,6.8-15.5,15.8
					h-8.6c0.3-13.4,10.2-23.7,23.7-23.7c12.8,0,24.2,9.4,24.2,22.7c0,6.2-1.8,11.6-5.8,16.2l-26.6,31.3
					C262.3,76.6,294.7,76.6,294.7,76.6z"/>
				<path class="st4" d="M364.3,84.6h-18.5v-5.8h-0.3c-3.3,5.2-9.7,7.5-15.8,7.5c-15.5,0-26.4-12.9-26.4-27.9s10.7-27.8,26.2-27.8
					c6,0,12.3,2.2,16.2,6.8v-5.1h18.5L364.3,84.6L364.3,84.6z M322.5,58.5c0,6.6,4.4,11.7,11.9,11.7s11.9-5.1,11.9-11.7
					c0-6.4-4.4-11.8-11.9-11.8C326.9,46.6,322.5,52.1,322.5,58.5z"/>
			</g>
		</g>
	</g>
</g>
<g id="_x32_022_-_Live_Text" class="st0">
	<text transform="matrix(1 0 0 1 67.3765 84.4995)" class="st5 st6 st7 st8">2022</text>
</g>
<g id="_x32_023_-_Live_Text" class="st0">
	<text transform="matrix(1 0 0 1 67.3765 84.4995)" class="st5 st6 st7 st8">2023</text>
</g>
<g id="R_-_Live_Text" class="st0">
	<text transform="matrix(1 0 0 1 7.629395e-06 84.6)" class="st9 st10 st7 st11">R</text>
</g>
<g id="b_-_Live_Text" class="st0">
	<text transform="matrix(1 0 0 1 298.6253 84.66)" class="st9 st10 st7 st11">b</text>
</g>
<g id="a_-_Live_Text" class="st0">
	<text transform="matrix(1 0 0 1 300.6253 84.66)" class="st9 st10 st7 st11">a</text>
</g>
<g id="_x32_022_-_Outlines" class="st0">
	<g class="st1">
		<path class="st3" d="M121.3,76.5v8H71.6l36-42.5c3.1-3.7,5.2-7.9,5.2-12.9c0-8.6-6.9-14.9-15.3-14.9c-9.3,0-15.3,6.8-15.5,15.8
			h-8.6C73.7,16.6,83.6,6.3,97.2,6.3c12.9,0,24.2,9.4,24.2,22.7c0,6.2-1.8,11.6-5.8,16.2L88.9,76.5H121.3z"/>
		<path class="st3" d="M184,46.1c0,19-10,39.7-27.5,39.7s-27.5-20.7-27.5-39.7c0-15.8,8.1-39.9,27.5-39.9S184,30.3,184,46.1z
			 M137.5,46.6c0.2,10.8,4.8,31.3,19,31.3s18.8-20.5,19-31.3c0.2-10.9-4.5-32.3-19-32.3S137.2,35.6,137.5,46.6z"/>
		<path class="st3" d="M236.6,76.5v8h-49.8l36-42.5c3.1-3.7,5.2-7.9,5.2-12.9c0-8.6-6.9-14.9-15.3-14.9c-9.3,0-15.3,6.8-15.5,15.8
			h-8.6c0.3-13.5,10.2-23.8,23.8-23.8c12.9,0,24.2,9.4,24.2,22.7c0,6.2-1.8,11.6-5.8,16.2l-26.6,31.3H236.6z"/>
		<path class="st3" d="M294.2,76.5v8h-49.8l36-42.5c3.1-3.7,5.2-7.9,5.2-12.9c0-8.6-6.9-14.9-15.3-14.9c-9.3,0-15.3,6.8-15.5,15.8
			h-8.6c0.3-13.5,10.2-23.8,23.8-23.8c12.9,0,24.2,9.4,24.2,22.7c0,6.2-1.8,11.6-5.8,16.2l-26.6,31.3H294.2z"/>
	</g>
</g>
<g id="_x32_023_-_Outlines">
	<g>
		<path class="st3" d="M121.3,76.5v8H71.6l36-42.5c3.1-3.7,5.2-7.9,5.2-12.9c0-8.6-6.9-14.9-15.3-14.9c-9.3,0-15.3,6.8-15.5,15.8
			h-8.6C73.7,16.6,83.6,6.3,97.2,6.3c12.9,0,24.2,9.4,24.2,22.7c0,6.2-1.8,11.6-5.8,16.2L88.9,76.5H121.3z"/>
		<path class="st3" d="M184,46.1c0,19-10,39.7-27.5,39.7s-27.5-20.7-27.5-39.7c0-15.8,8.1-39.9,27.5-39.9S184,30.3,184,46.1z
			 M137.5,46.6c0.2,10.8,4.8,31.3,19,31.3s18.8-20.5,19-31.3c0.2-10.9-4.5-32.3-19-32.3S137.2,35.6,137.5,46.6z"/>
		<path class="st3" d="M236.6,76.5v8h-49.8l36-42.5c3.1-3.7,5.2-7.9,5.2-12.9c0-8.6-6.9-14.9-15.3-14.9c-9.3,0-15.3,6.8-15.5,15.8
			h-8.6c0.3-13.5,10.2-23.8,23.8-23.8c12.9,0,24.2,9.4,24.2,22.7c0,6.2-1.8,11.6-5.8,16.2l-26.6,31.3H236.6z"/>
		<path class="st3" d="M267.9,40.1c8.2-0.3,15.2-2.8,15.2-12.4c0-8.2-5.4-13.5-13.5-13.5c-7.6,0-11.9,5.1-12.6,12.3h-8.5
			c1.2-12.2,8.7-20.3,21.3-20.3c12.3,0,21.8,8.4,21.8,21c0,6.8-3.7,13.7-9.9,16.8c7.4,3.4,11,11,11,18.9c0,13.5-10.7,22.8-23.9,22.8
			c-12.4,0-22.6-8.5-22.8-21.3h8.4c0.4,7.9,7,13.4,14.8,13.4c8.6,0,15-6.9,15-15.4c0-9.8-6.9-14.7-16.3-14.4V40.1z"/>
	</g>
</g>
<g id="R_-_Outlines">
	<g>
		<path class="st4" d="M70.5,84.6H45.6L26.7,55h-0.2v29.6h-20V7.7h29.9c15.2,0,26.7,7.2,26.7,23.7c0,10.6-5.9,19.8-16.8,21.7
			L70.5,84.6z M26.5,42.2h1.9c6.5,0,13.9-1.2,13.9-9.6S35,23,28.5,23h-1.9V42.2z"/>
	</g>
</g>
<g id="b_-_Outlines" class="st0">
	<g class="st1">
		<path class="st4" d="M301.5,0h18.6v37.4c4-4.6,10.2-6.8,16.2-6.8c15.5,0,26.2,12.9,26.2,27.8c0,15.1-10.8,27.9-26.4,27.9
			c-6.1,0-12.4-2.3-15.8-7.5h-0.2v5.8h-18.6V0z M319.5,58.5c0,6.6,4.4,11.7,11.9,11.7c7.5,0,11.9-5.1,11.9-11.7
			c0-6.4-4.4-11.8-11.9-11.8C323.8,46.7,319.5,52.1,319.5,58.5z"/>
	</g>
</g>
<g id="a_-_Outlines__x28_8.7px_from_Left_Edge_of_Last_Number_x29_">
	<g>
		<path class="st4" d="M362.5,84.7h-18.6v-5.8h-0.2c-3.3,5.2-9.7,7.5-15.8,7.5c-15.5,0-26.4-13-26.4-27.9c0-15,10.7-27.8,26.2-27.8
			c6,0,12.3,2.2,16.2,6.8v-5.1h18.6V84.7z M320.7,58.5c0,6.6,4.4,11.7,11.9,11.7c7.5,0,11.9-5.1,11.9-11.7c0-6.4-4.4-11.8-11.9-11.8
			C325.1,46.7,320.7,52.1,320.7,58.5z"/>
	</g>
</g>
</svg>
