<?xml version="1.0" encoding="utf-8"?>
<!-- Generator: Adobe Illustrator 26.0.1, SVG Export Plug-In . SVG Version: 6.00 Build 0)  -->
<svg version="1.1" xmlns="http://www.w3.org/2000/svg" xmlns:xlink="http://www.w3.org/1999/xlink" x="0px" y="0px"
	 viewBox="0 0 45 45" style="enable-background:new 0 0 45 45;" xml:space="preserve">
<style type="text/css">
	.st0{display:none;}
	.st1{display:inline;fill:#0276A8;}
	.st2{display:inline;fill:#00A8E0;}
	.st3{display:inline;fill:#FFFFFF;}
	.st4{display:inline;fill:#F8A81A;}
	.st5{display:inline;fill:#8A8A8A;}
	.st6{display:inline;fill:#43A7DE;}
	.st7{display:inline;fill:#41B554;stroke:#41B554;stroke-linejoin:round;}
	.st8{display:inline;fill:#41B554;}
	.st9{display:inline;fill:none;stroke:#41B554;}
	.st10{display:inline;fill:#3889C9;}
	.st11{fill:#8A8A8A;}
	.st12{fill:none;stroke:#8A8A8A;stroke-width:2;}
	.st13{display:inline;fill:#D16432;}
</style>
<g id="Books" class="st0">
	<path class="st1" d="M20.2,7.8H10.1c-0.8,0-1.5,0.7-1.5,1.5v25.9c0,0.8,0.7,1.5,1.5,1.5h10.2c0.8,0,1.5-0.7,1.5-1.5V9.3
		C21.7,8.5,21,7.8,20.2,7.8z"/>
	<path class="st2" d="M32,11.2l-8.8,1.1c-0.8,0.1-1.4,0.8-1.3,1.7l2.7,21.8c0.1,0.8,0.8,1.4,1.7,1.3L35,36c0.8-0.1,1.4-0.8,1.3-1.7
		l-2.7-21.8C33.6,11.7,32.8,11.1,32,11.2z"/>
	<path class="st3" d="M16.5,12.7h-3.9c-0.7,0-1.3,0.6-1.3,1.3c0,0.7,0.6,1.3,1.3,1.3h3.9c0.7,0,1.3-0.6,1.3-1.3
		C17.8,13.3,17.2,12.7,16.5,12.7z"/>
	<path class="st3" d="M29.7,14.1l-3.9,0.5c-0.7,0.1-1.2,0.7-1.1,1.5c0.1,0.7,0.7,1.2,1.5,1.1l3.9-0.5c0.7-0.1,1.2-0.7,1.1-1.5
		C31.1,14.6,30.4,14.1,29.7,14.1z"/>
	<path class="st3" d="M12.5,21.2v5.3c0,1.1,0.9,2,2,2s2-0.9,2-2v-5.3c0-1.1-0.9-2-2-2S12.5,20.1,12.5,21.2z"/>
	<path class="st3" d="M31.2,26.2L30.6,21c-0.1-1.1-1.1-1.9-2.2-1.7c-1.1,0.1-1.9,1.1-1.7,2.2l0.6,5.2c0.1,1.1,1.1,1.9,2.2,1.7
		C30.6,28.3,31.4,27.3,31.2,26.2z"/>
</g>
<g id="Bug_Reports" class="st0">
	<path class="st4" d="M10.1,36.7h25c0.9,0,1.7-0.3,2.3-1c0.6-0.6,1-1.5,1-2.3c0-0.6-0.1-1.2-0.5-1.7L25.4,10.1
		c-0.4-0.8-1.2-1.3-2-1.6s-1.8-0.1-2.5,0.3c-0.5,0.3-0.9,0.7-1.2,1.2L7.2,31.7c-0.4,0.8-0.6,1.6-0.4,2.5c0.2,0.8,0.8,1.6,1.5,2
		C8.9,36.5,9.5,36.7,10.1,36.7z M22.6,26.6c-0.4,0-0.9-0.2-1.2-0.5c-0.3-0.3-0.5-0.7-0.5-1.2v-5.5c0-0.2,0-0.5,0.1-0.7
		c0.1-0.2,0.2-0.4,0.4-0.6c0.2-0.2,0.4-0.3,0.6-0.4c0.2-0.1,0.4-0.1,0.7-0.1c0.2,0,0.5,0,0.7,0.1c0.2,0.1,0.4,0.2,0.6,0.4
		c0.2,0.2,0.3,0.4,0.4,0.6c0.1,0.2,0.1,0.4,0.1,0.7v5.5c0,0.2,0,0.4-0.1,0.7c-0.1,0.2-0.2,0.4-0.4,0.6c-0.2,0.2-0.3,0.3-0.6,0.4
		C23.1,26.6,22.8,26.6,22.6,26.6L22.6,26.6z M24.3,31.7H21v-3.3h3.3L24.3,31.7z"/>
</g>
<g id="Community" class="st0">
	<path class="st5" d="M29.4,32.5c0.1-0.5,0.2-1,0.2-1.5v-2.1c0-1-0.3-1.9-0.8-2.8c-0.5-0.8-1.2-1.6-2-2.1c0.4-0.1,0.9-0.1,1.4-0.1
		c3.4,0,10,1.7,10.1,4.9V31c0,0.4-0.2,0.8-0.4,1c-0.3,0.3-0.6,0.4-1,0.4H29.4z M23.9,16.8c0-0.8,0.3-1.7,0.7-2.4s1.1-1.2,1.9-1.6
		c0.8-0.3,1.6-0.4,2.5-0.2c0.8,0.2,1.6,0.6,2.2,1.2c0.6,0.6,1,1.4,1.2,2.2c0.2,0.8,0.1,1.7-0.2,2.5c-0.3,0.8-0.9,1.4-1.6,1.9
		S29,21,28.2,21c-0.6,0-1.1-0.1-1.6-0.3c-0.5-0.2-1-0.5-1.4-0.9c-0.4-0.4-0.7-0.9-0.9-1.4C24,17.9,23.9,17.3,23.9,16.8L23.9,16.8z"
		/>
	<path class="st6" d="M16.7,21c0.8,0,1.7-0.3,2.4-0.7s1.2-1.1,1.6-1.9s0.4-1.6,0.2-2.5c-0.2-0.8-0.6-1.6-1.2-2.2
		c-0.6-0.6-1.4-1-2.2-1.2c-0.8-0.2-1.7-0.1-2.5,0.2c-0.8,0.3-1.4,0.9-1.9,1.6c-0.5,0.7-0.7,1.5-0.7,2.4l0,0c0,0.6,0.1,1.1,0.3,1.6
		c0.2,0.5,0.5,1,0.9,1.4c0.4,0.4,0.9,0.7,1.4,0.9C15.6,20.9,16.2,21,16.7,21L16.7,21z"/>
	<path class="st6" d="M16.7,23.9c-3.4,0-10,1.7-10,5.1v2.1c0,0.4,0.2,0.8,0.4,1c0.3,0.3,0.6,0.4,1,0.4h17.2c0.4,0,0.8-0.2,1-0.4
		c0.3-0.3,0.4-0.6,0.4-1V29C26.7,25.6,20.1,23.9,16.7,23.9z"/>
</g>
<g id="Downloads" class="st0">
	<path class="st7" d="M15.2,20.5v5.7h-5l12.2,13l12.2-13h-4.8v-5.7H15.2z"/>
	<path class="st8" d="M29.5,11.7H15.8c-0.6,0-1,0.4-1,1v3.6c0,0.6,0.4,1,1,1h13.8c0.6,0,1-0.4,1-1v-3.6
		C30.5,12.1,30.1,11.7,29.5,11.7z"/>
	<path class="st9" d="M29.5,12.2H15.8c-0.3,0-0.5,0.2-0.5,0.5v3.6c0,0.3,0.2,0.5,0.5,0.5h13.8c0.3,0,0.5-0.2,0.5-0.5v-3.6
		C30,12.4,29.8,12.2,29.5,12.2z"/>
	<path class="st8" d="M29.5,5.2H15.8c-0.6,0-1,0.4-1,1v2.6c0,0.6,0.4,1,1,1h13.8c0.6,0,1-0.4,1-1V6.2C30.5,5.6,30.1,5.2,29.5,5.2z"
		/>
	<path class="st9" d="M29.5,5.7H15.8c-0.3,0-0.5,0.2-0.5,0.5v2.6c0,0.3,0.2,0.5,0.5,0.5h13.8c0.3,0,0.5-0.2,0.5-0.5V6.2
		C30,5.9,29.8,5.7,29.5,5.7z"/>
</g>
<g id="File_Exchange" class="st0">
	<path class="st6" d="M20.5,11.2V6.7l-7.9,7.9l7.9,7.9V18c2.6-0.4,5.3,0.1,7.5,1.5c2.2,1.4,3.9,3.5,4.7,6.1c0.3-1.5,0.4-3.1,0.1-4.6
		c-0.3-1.5-0.9-3-1.7-4.3c-0.8-1.3-1.9-2.4-3.2-3.3c-1.3-0.9-2.7-1.5-4.2-1.8C22.6,11.2,21.6,11.2,20.5,11.2L20.5,11.2z"/>
	<path class="st10" d="M14.9,23.9c-1.2-1.2-2.2-2.8-2.7-4.4c-0.3,1.5-0.4,3.1-0.1,4.6c0.3,1.5,0.9,3,1.7,4.3
		c0.8,1.3,1.9,2.4,3.2,3.3c1.3,0.9,2.7,1.5,4.2,1.8c1,0.2,2.1,0.3,3.2,0.2v4.5l7.9-7.9l-7.9-7.9V27c-1.7,0.3-3.5,0.1-5.2-0.4
		C17.7,26,16.1,25.1,14.9,23.9L14.9,23.9z"/>
</g>
<g id="Hardware_Support">
	<path class="st11" d="M35.8,19.4h-3.3c-0.2-0.6-0.4-1.2-0.8-1.8l2.4-2.4c0.1-0.1,0.2-0.2,0.3-0.4c0.1-0.1,0.1-0.3,0.1-0.4
		s0-0.3-0.1-0.4c-0.1-0.1-0.1-0.3-0.3-0.4l-2.7-2.7c-0.2-0.2-0.5-0.3-0.8-0.3c-0.3,0-0.6,0.1-0.8,0.3l-2.3,2.3
		c-0.6-0.3-1.2-0.6-1.8-0.8V9.2c0-0.3-0.1-0.6-0.3-0.8S24.7,8,24.4,8h-3.8c-0.3,0-0.6,0.1-0.8,0.3s-0.3,0.5-0.3,0.8v3.3
		c-0.6,0.2-1.2,0.4-1.8,0.8l-2.3-2.3c-0.1-0.1-0.2-0.2-0.4-0.3c-0.1-0.1-0.3-0.1-0.4-0.1s-0.3,0-0.4,0.1c-0.1,0.1-0.3,0.1-0.4,0.3
		l-2.7,2.7c-0.1,0.1-0.2,0.2-0.3,0.4c-0.1,0.1-0.1,0.3-0.1,0.4s0,0.3,0.1,0.4c0.1,0.1,0.1,0.3,0.3,0.4l2.3,2.3
		c-0.3,0.6-0.6,1.2-0.8,1.8H9.2c-0.3,0-0.6,0.1-0.8,0.3C8.1,20,8,20.3,8,20.6v3.8c0,0.3,0.1,0.6,0.3,0.8c0.2,0.2,0.5,0.3,0.8,0.3
		h3.3c0.2,0.6,0.5,1.2,0.8,1.8l-2.3,2.3c-0.2,0.2-0.3,0.5-0.3,0.8c0,0.3,0.1,0.6,0.3,0.8l2.7,2.7c0.1,0.1,0.2,0.2,0.4,0.3
		c0.1,0.1,0.3,0.1,0.4,0.1c0.2,0,0.3,0,0.4-0.1c0.1-0.1,0.3-0.1,0.4-0.3l2.4-2.4c0.6,0.3,1.2,0.6,1.8,0.8v3.3c0,0.3,0.1,0.6,0.3,0.8
		c0.2,0.2,0.5,0.3,0.8,0.3h3.8c0.3,0,0.6-0.1,0.8-0.3c0.2-0.2,0.3-0.5,0.3-0.8v-3.3c0.6-0.2,1.2-0.5,1.8-0.8l2.4,2.4
		c0.2,0.2,0.5,0.3,0.8,0.3s0.6-0.1,0.8-0.3l2.7-2.7c0.2-0.2,0.3-0.5,0.3-0.8s-0.1-0.6-0.3-0.8l-2.4-2.4c0.3-0.6,0.6-1.2,0.8-1.8h3.3
		c0.2,0,0.3,0,0.4-0.1c0.1-0.1,0.3-0.1,0.4-0.3c0.1-0.1,0.2-0.2,0.3-0.4c0.1-0.1,0.1-0.3,0.1-0.4v-3.8c0-0.3-0.1-0.6-0.3-0.8
		C36.4,19.6,36.1,19.4,35.8,19.4L35.8,19.4z M22.5,28.6c-1.2,0-2.4-0.4-3.4-1c-1-0.7-1.8-1.6-2.2-2.7c-0.5-1.1-0.6-2.3-0.3-3.5
		c0.2-1.2,0.8-2.3,1.7-3.1c0.9-0.9,1.9-1.4,3.1-1.7c1.2-0.2,2.4-0.1,3.5,0.3c1.1,0.5,2.1,1.2,2.7,2.2c0.7,1,1,2.2,1,3.4
		c0,0.8-0.2,1.6-0.5,2.3c-0.3,0.7-0.8,1.4-1.3,2c-0.6,0.6-1.2,1-2,1.3C24.1,28.4,23.3,28.6,22.5,28.6L22.5,28.6z"/>
	<path class="st12" d="M22.5,26c1.9,0,3.5-1.6,3.5-3.5S24.4,19,22.5,19S19,20.6,19,22.5S20.6,26,22.5,26z"/>
</g>
<g id="Installation_Help" class="st0">
	<path class="st5" d="M38,12.5c0.3,1,0.4,2.1,0.1,3.1c-0.3,1-0.9,2-1.7,2.7c-0.1,0.1-0.3,0.3-0.4,0.4c-0.8,0.7-1.8,1.1-2.8,1.3
		c-1,0.2-2.1,0-3.1-0.4L19.7,29.8c0.1,0.3,0.2,0.5,0.3,0.8c0.4,1,0.4,2.1,0.2,3.2c-0.3,1.1-0.8,2-1.6,2.8c-0.2,0.2-0.4,0.4-0.7,0.6
		c-0.9,0.7-2,1-3.2,1.1c-1.1,0.1-2.3-0.2-3.3-0.7l3-3c0.3-0.3,0.4-0.7,0.4-1.1s-0.2-0.8-0.4-1.1l-1.7-1.6c-0.1-0.1-0.2-0.1-0.3-0.2
		c-0.1-0.1-0.3-0.2-0.5-0.3s-0.4-0.1-0.6-0.1c-0.2,0-0.4,0.1-0.5,0.2c-0.2,0.1-0.3,0.2-0.4,0.4l-3,3C7.3,33.4,7.2,33,7,32.6
		c-0.4-1-0.4-2.2-0.2-3.2c0.2-1.1,0.8-2.1,1.6-2.8c0.8-0.7,1.8-1.3,2.8-1.5c1.1-0.3,2.1-0.2,3.2,0.1l10.7-10.4c0,0,0-0.1-0.1-0.1
		c-0.4-1.1-0.5-2.2-0.2-3.3c0.3-1.1,0.8-2.1,1.7-2.9c0.2-0.2,0.4-0.4,0.7-0.6c0.9-0.7,2-1,3.2-1.1c1.1-0.1,2.3,0.2,3.3,0.7l-3,3
		c-0.3,0.3-0.4,0.7-0.4,1.1c0,0.4,0.2,0.8,0.4,1.1l1.7,1.6c0.1,0.1,0.2,0.1,0.3,0.2c0.1,0.1,0.3,0.2,0.5,0.3
		c0.2,0.1,0.4,0.1,0.6,0.1c0.2,0,0.4-0.1,0.5-0.2c0.2-0.1,0.3-0.2,0.4-0.4l3-3C37.8,11.7,37.9,12.1,38,12.5L38,12.5z"/>
</g>
<g id="Release_Notes" class="st0">
	<path class="st5" d="M34.9,12.2c0.3,0.3,0.4,0.7,0.5,1.1v24.3c0,0.1,0,0.2,0,0.3c0,0.1-0.1,0.2-0.1,0.2c-0.1,0.1-0.1,0.1-0.2,0.1
		s-0.2,0.1-0.3,0.1H10.3c-0.2,0-0.3-0.1-0.5-0.2c-0.1-0.1-0.2-0.3-0.2-0.5V7.4c0-0.2,0.1-0.3,0.2-0.5c0.1-0.1,0.3-0.2,0.5-0.2h18.4
		c0.4,0,0.8,0.2,1.1,0.5L34.9,12.2L34.9,12.2z M28.1,14.6c-0.2,0-0.3-0.1-0.5-0.2c-0.1-0.1-0.2-0.3-0.2-0.5V9.3
		c0-0.2-0.1-0.3-0.2-0.5c-0.1-0.1-0.3-0.2-0.5-0.2H12.3c-0.2,0-0.3,0.1-0.5,0.2c-0.1,0.1-0.2,0.3-0.2,0.5v26.3
		c0,0.2,0.1,0.3,0.2,0.5c0.1,0.1,0.3,0.2,0.5,0.2h20.4c0.2,0,0.3-0.1,0.5-0.2s0.2-0.3,0.2-0.5V15.3c0-0.2-0.1-0.3-0.2-0.5
		c-0.1-0.1-0.3-0.2-0.5-0.2H28.1z M15.6,15.9c0,0.2,0.1,0.3,0.2,0.5c0.1,0.1,0.3,0.2,0.5,0.2h8.6c0.2,0,0.3-0.1,0.5-0.2
		c0.1-0.1,0.2-0.3,0.2-0.5v-0.7c0-0.2-0.1-0.3-0.2-0.5c-0.1-0.1-0.3-0.2-0.5-0.2l-8.6,0c-0.2,0-0.3,0.1-0.5,0.2
		c-0.1,0.1-0.2,0.3-0.2,0.5V15.9L15.6,15.9z M15.6,19.2c0-0.2,0.1-0.3,0.2-0.5c0.1-0.1,0.3-0.2,0.5-0.2h12.5c0.2,0,0.3,0.1,0.5,0.2
		c0.1,0.1,0.2,0.3,0.2,0.5v0.7c0,0.2-0.1,0.3-0.2,0.5c-0.1,0.1-0.3,0.2-0.5,0.2H16.2c-0.2,0-0.3-0.1-0.5-0.2
		c-0.1-0.1-0.2-0.3-0.2-0.5V19.2z M15.6,23.8c0,0.2,0.1,0.3,0.2,0.5c0.1,0.1,0.3,0.2,0.5,0.2h12.5c0.2,0,0.3-0.1,0.5-0.2
		c0.1-0.1,0.2-0.3,0.2-0.5v-0.7c0-0.2-0.1-0.3-0.2-0.5c-0.1-0.1-0.3-0.2-0.5-0.2H16.3c-0.2,0-0.3,0.1-0.5,0.2
		c-0.1,0.1-0.2,0.3-0.2,0.5V23.8z M15.6,27.8c0,0.2,0.1,0.3,0.2,0.5c0.1,0.1,0.3,0.2,0.5,0.2h12.5c0.1,0,0.2,0,0.3,0
		c0.1,0,0.2-0.1,0.2-0.1c0.1-0.1,0.1-0.1,0.1-0.2c0-0.1,0.1-0.2,0.1-0.3v-0.7c0-0.2-0.1-0.3-0.2-0.5c-0.1-0.1-0.3-0.2-0.5-0.2H16.3
		c-0.2,0-0.3,0.1-0.5,0.2c-0.1,0.1-0.2,0.3-0.2,0.5V27.8L15.6,27.8z M15.6,31.7c0,0.2,0.1,0.3,0.2,0.5c0.1,0.1,0.3,0.2,0.5,0.2h4.6
		c0.1,0,0.2,0,0.3,0c0.1,0,0.2-0.1,0.2-0.1c0.1-0.1,0.1-0.1,0.1-0.2c0-0.1,0.1-0.2,0.1-0.3v-0.7c0-0.2-0.1-0.3-0.2-0.5
		c-0.1-0.1-0.3-0.2-0.5-0.2h-4.6c-0.2,0-0.3,0.1-0.5,0.2s-0.2,0.3-0.2,0.5L15.6,31.7L15.6,31.7z"/>
</g>
<g id="Training" class="st0">
	<path class="st5" d="M36.6,33.1c0.5,0,0.9-0.1,1.4-0.3c0.4-0.2,0.8-0.4,1.2-0.8c0.3-0.3,0.6-0.7,0.8-1.2c0.2-0.4,0.3-0.9,0.3-1.4
		V12c0-0.5-0.1-0.9-0.3-1.4c-0.2-0.4-0.4-0.8-0.8-1.2c-0.3-0.3-0.7-0.6-1.2-0.8c-0.4-0.2-0.9-0.3-1.4-0.3H8.5C7.6,8.5,6.7,8.9,6,9.6
		c-0.6,0.7-1,1.6-1,2.5v17.5c0,0.9,0.3,1.8,1,2.5c0.6,0.7,1.5,1.1,2.4,1.1H3.2c-0.4,0-0.9,0.2-1.2,0.5c-0.3,0.3-0.5,0.7-0.5,1.2
		c0,0.4,0.2,0.9,0.5,1.2c0.3,0.3,0.7,0.5,1.2,0.5h38.6c0.4,0,0.9-0.2,1.2-0.5c0.3-0.3,0.5-0.7,0.5-1.2c0-0.4-0.2-0.9-0.5-1.2
		c-0.3-0.3-0.7-0.5-1.2-0.5L36.6,33.1z"/>
	<path class="st3" d="M10.1,11h25c0.7,0,1.4,0.3,1.9,0.8c0.5,0.5,0.8,1.2,0.8,1.9v14.5c0,0.7-0.3,1.4-0.8,1.9s-1.2,0.8-1.9,0.8h-25
		c-0.7,0-1.4-0.3-1.9-0.8c-0.5-0.5-0.8-1.2-0.8-1.9V13.6c0-0.7,0.3-1.4,0.8-1.9C8.7,11.3,9.4,11,10.1,11L10.1,11z"/>
	<path class="st4" d="M27.7,18.2L27,17.2l0.4-1.1l-0.9-0.8l-0.1-1.2L25.2,14L24.7,13l-1.2,0.3l-0.9-0.8l-0.9,0.8L20.5,13L19.9,14
		l-1.2,0.3l-0.1,1.1L17.7,16l0.4,1.1l-0.7,1.1l0.8,0.9l-0.1,1.2l1.1,0.5l0.4,1.2h1.2l0.8,0.9l1.1-0.5l1.1,0.5l0.8-0.9h1.2l0.4-1.2
		l1.1-0.5L26.9,19L27.7,18.2z M22.6,14.9c0.5,0,1.1,0.1,1.5,0.4s0.8,0.7,1,1.2c0.2,0.5,0.3,1,0.2,1.6c-0.1,0.5-0.3,1-0.7,1.4
		c-0.4,0.4-0.8,0.7-1.4,0.8c-0.5,0.1-1.1,0.1-1.6-0.1c-0.5-0.2-0.9-0.5-1.2-1c-0.3-0.4-0.5-1-0.5-1.5l0,0c0-0.4,0-0.7,0.2-1
		c0.1-0.3,0.3-0.6,0.6-0.9c0.2-0.3,0.5-0.5,0.9-0.6C21.9,15,22.2,14.9,22.6,14.9L22.6,14.9z"/>
	<path class="st13" d="M25.5,22.6h-0.7L24.3,23l-0.4,0.3l-0.5-0.1l-0.8-0.3l-0.8,0.3l-0.5,0.1L20.9,23l-0.4-0.4h-0.8l-1.3,3.7
		c0,0.1,0.1,0.1,0.3,0.1l1.4-0.5h0.3l0.8,1.1c0.1,0.1,0.3,0.1,0.3,0l1.2-3l1.3,4.3c0,0.1,0.3,0.1,0.3,0l0.9-1.1h0.3l1.4,0.7
		c0.1,0,0.3,0,0.3-0.1L25.5,22.6z"/>
</g>
</svg>
